# xmcd
#
# Track frame offsets:
#	150
#	10535
#	20225
#	30440
#	38960
#	52820
#	67015
#	82380
#	93660
#	104670
#	116670
#	129890
#	141710
#	150420
#	162165
#	176900
#	189955
#	202015
#	214075
#	224565
#	242085
#	252300
#	264990
#	278535
#
# Disc length: 3911 seconds
#
# Revision: 1
# Processed by: cddbd v1.5.1PL0 Copyright (c) Steve Scherf et al.
# Submitted via: audiograbber 1.82.02
#
DISCID=620f4518
DTITLE=Rick and Thel Carey - Regal Zonophone and Beyond Vol 2
DYEAR=1900
DGENRE=Country
TTITLE0=You Thought I Thought - Rick and Thel Carey
TTITLE1=I'm Blaming You - Rick and Thel Carey
TTITLE2=Talking In Your Sleep - Rick and Thel Carey
TTITLE3=Three Ways Of Knowing - Rick and Thel Carey
TTITLE4=White Crosses In The Jungle - Rick and Thel Carey
TTITLE5=Man And Woman - Rick and Thel Carey
TTITLE6=Why Do We Go On This Way - Rick and Thel Carey
TTITLE7=Lets Talk It Over - Rick and Thel Carey
TTITLE8=Thanks For The Lesson - Rick and Thel Carey
TTITLE9=How About Me - Rick and Thel Carey
TTITLE10=Rusty's Love - Rick and Thel Carey
TTITLE11=Let's Pull Together - Rick and Thel Carey
TTITLE12=Would You Mind - Rick and Thel Carey
TTITLE13=Somebody's Dad - Rick and Thel Carey
TTITLE14=I Love You Best Of All - Rick and Thel Carey
TTITLE15=The First Rose - Rick and Thel Carey
TTITLE16=Before I Met You - Rick and Thel Carey
TTITLE17=I Heard The Bluebird Sing - Rick and Thel Carey
TTITLE18=The Stairs That Namatjira Climbs - Rick and Thel Carey
TTITLE19=When I Went Back To Suvla Bay - Rick and Thel Carey
TTITLE20=I've Had It - Rick and Thel Carey
TTITLE21=Goodbye Mr Brown - Rick and Thel Carey
TTITLE22=Poor Folks - Rick and Thel Carey
TTITLE23=Change Your Ways - Rick and Thel Carey
EXTD=
EXTT0=
EXTT1=
EXTT2=
EXTT3=
EXTT4=
EXTT5=
EXTT6=
EXTT7=
EXTT8=
EXTT9=
EXTT10=
EXTT11=
EXTT12=
EXTT13=
EXTT14=
EXTT15=
EXTT16=
EXTT17=
EXTT18=
EXTT19=
EXTT20=
EXTT21=
EXTT22=
EXTT23=
PLAYORDER=
